# Blender 4.2.1 LTS
# www.blender.org
mtllib BombShockwavePart.mtl
o Circle.001
v 0.000000 -0.221187 -1.090120
v -0.212672 -0.221187 -1.069173
v -0.417171 -0.221187 -1.007139
v -0.605638 -0.221187 -0.906401
v -0.770831 -0.221187 -0.770831
v -0.906401 -0.221187 -0.605638
v -1.007139 -0.221187 -0.417171
v -1.069173 -0.221187 -0.212672
v -1.090120 -0.221187 0.000000
v -1.069173 -0.221187 0.212672
v -1.007139 -0.221187 0.417171
v -0.906401 -0.221187 0.605638
v -0.770831 -0.221187 0.770831
v -0.605638 -0.221187 0.906401
v -0.417171 -0.221187 1.007139
v -0.212672 -0.221187 1.069173
v 0.000000 -0.221187 1.090120
v 0.212672 -0.221187 1.069173
v 0.417171 -0.221187 1.007139
v 0.605638 -0.221187 0.906401
v 0.770831 -0.221187 0.770831
v 0.906401 -0.221187 0.605638
v 1.007139 -0.221187 0.417171
v 1.069173 -0.221187 0.212672
v 1.090120 -0.221187 0.000000
v 1.069173 -0.221187 -0.212672
v 1.007139 -0.221187 -0.417171
v 0.906401 -0.221187 -0.605638
v 0.770831 -0.221187 -0.770831
v 0.605638 -0.221187 -0.906401
v 0.417171 -0.221187 -1.007139
v 0.212672 -0.221187 -1.069173
v -0.000000 0.504823 -1.576202
v -0.251393 -0.062450 -1.263838
v -0.603186 0.186481 -1.456220
v -0.715907 -0.062450 -1.071430
v -1.114543 0.504823 -1.114543
v -1.071430 -0.062450 -0.715907
v -1.456220 0.186481 -0.603186
v -1.263838 -0.062450 -0.251393
v -1.576202 0.504823 0.000000
v -1.263838 -0.062450 0.251393
v -1.456220 0.186481 0.603186
v -1.071430 -0.062450 0.715907
v -1.114543 0.504823 1.114543
v -0.715907 -0.062450 1.071430
v -0.603186 0.186481 1.456220
v -0.251393 -0.062450 1.263838
v -0.000000 0.504823 1.576202
v 0.251393 -0.062450 1.263838
v 0.603186 0.186481 1.456220
v 0.715907 -0.062450 1.071430
v 1.114543 0.504823 1.114543
v 1.071430 -0.062450 0.715907
v 1.456220 0.186481 0.603186
v 1.263838 -0.062450 0.251393
v 1.576202 0.504823 0.000000
v 1.263838 -0.062450 -0.251393
v 1.456220 0.186481 -0.603186
v 1.071430 -0.062450 -0.715907
v 1.114543 0.504823 -1.114543
v 0.715907 -0.062450 -1.071430
v 0.603186 0.186481 -1.456220
v 0.251393 -0.062450 -1.263838
vn -0.0000 0.6052 0.7961
vn 0.0187 0.7005 0.7134
vn 0.2442 0.7700 0.5895
vn 0.4912 0.7005 0.5177
vn 0.5629 0.6052 0.5629
vn 0.5177 0.7005 0.4912
vn 0.5895 0.7700 0.2442
vn 0.7134 0.7005 0.0187
vn 0.7961 0.6052 -0.0000
vn 0.7134 0.7005 -0.0187
vn 0.5895 0.7700 -0.2442
vn 0.5177 0.7005 -0.4912
vn 0.5629 0.6052 -0.5629
vn 0.4912 0.7005 -0.5177
vn 0.2442 0.7700 -0.5895
vn 0.0187 0.7005 -0.7134
vn -0.0000 0.6052 -0.7961
vn -0.0187 0.7005 -0.7134
vn -0.2442 0.7700 -0.5895
vn -0.4912 0.7005 -0.5177
vn -0.5629 0.6052 -0.5629
vn -0.5177 0.7005 -0.4912
vn -0.5895 0.7700 -0.2442
vn -0.7134 0.7005 -0.0187
vn -0.7961 0.6052 -0.0000
vn -0.7134 0.7005 0.0187
vn -0.5895 0.7700 0.2442
vn -0.5177 0.7005 0.4912
vn -0.5629 0.6052 0.5629
vn -0.4912 0.7005 0.5177
vn -0.2442 0.7700 0.5895
vn -0.0187 0.7005 0.7134
vn 0.0160 0.6992 0.7147
vn 0.4941 0.6992 0.5167
vn 0.5167 0.6992 0.4941
vn 0.7147 0.6992 0.0160
vn 0.7147 0.6992 -0.0160
vn 0.5167 0.6992 -0.4941
vn 0.4941 0.6992 -0.5167
vn 0.0160 0.6992 -0.7147
vn -0.0160 0.6992 -0.7147
vn -0.4941 0.6992 -0.5167
vn -0.5167 0.6992 -0.4941
vn -0.7147 0.6992 -0.0160
vn -0.7147 0.6992 0.0160
vn -0.5167 0.6992 0.4941
vn -0.4941 0.6992 0.5167
vn -0.0160 0.6992 0.7147
vt 0.000000 0.000000
s 1
f 20/1/20 19/1/19 51/1/19 52/1/42
f 7/1/7 6/1/6 38/1/35 39/1/7
f 21/1/21 20/1/20 52/1/42 53/1/21
f 8/1/8 7/1/7 39/1/7 40/1/36
f 22/1/22 21/1/21 53/1/21 54/1/43
f 9/1/9 8/1/8 40/1/36 41/1/9
f 23/1/23 22/1/22 54/1/43 55/1/23
f 10/1/10 9/1/9 41/1/9 42/1/37
f 24/1/24 23/1/23 55/1/23 56/1/44
f 11/1/11 10/1/10 42/1/37 43/1/11
f 25/1/25 24/1/24 56/1/44 57/1/25
f 12/1/12 11/1/11 43/1/11 44/1/38
f 26/1/26 25/1/25 57/1/25 58/1/45
f 13/1/13 12/1/12 44/1/38 45/1/13
f 27/1/27 26/1/26 58/1/45 59/1/27
f 14/1/14 13/1/13 45/1/13 46/1/39
f 28/1/28 27/1/27 59/1/27 60/1/46
f 15/1/15 14/1/14 46/1/39 47/1/15
f 2/1/2 1/1/1 33/1/1 34/1/33
f 29/1/29 28/1/28 60/1/46 61/1/29
f 16/1/16 15/1/15 47/1/15 48/1/40
f 3/1/3 2/1/2 34/1/33 35/1/3
f 30/1/30 29/1/29 61/1/29 62/1/47
f 17/1/17 16/1/16 48/1/40 49/1/17
f 4/1/4 3/1/3 35/1/3 36/1/34
f 31/1/31 30/1/30 62/1/47 63/1/31
f 18/1/18 17/1/17 49/1/17 50/1/41
f 5/1/5 4/1/4 36/1/34 37/1/5
f 32/1/32 31/1/31 63/1/31 64/1/48
f 19/1/19 18/1/18 50/1/41 51/1/19
f 6/1/6 5/1/5 37/1/5 38/1/35
f 1/1/1 32/1/32 64/1/48 33/1/1
