# Blender 4.2.1 LTS
# www.blender.org
mtllib RightLeg.mtl
o RightLeg
v 0.020501 -0.396980 0.184911
v 0.020501 -1.098230 0.184911
v 0.346751 -1.098230 0.184911
v 0.346751 -0.396980 0.184911
v 0.020501 -0.372605 0.160536
v -0.003874 -0.396980 0.160536
v -0.003874 -1.098230 0.160536
v 0.020501 -1.122605 0.160536
v 0.346751 -1.122605 0.160536
v 0.371126 -1.098230 0.160536
v 0.371126 -0.396980 0.160536
v 0.346751 -0.372605 0.160536
v 0.020501 -0.372605 0.160536
v 0.020501 -0.372605 -0.165714
v -0.003874 -0.396980 -0.165714
v -0.003874 -0.396980 0.160536
v -0.003874 -1.098230 -0.165714
v -0.003874 -1.098230 0.160536
v 0.020501 -1.122605 -0.165714
v 0.020501 -1.122605 0.160536
v 0.020501 -1.122605 0.160536
v 0.020501 -1.122605 -0.165714
v 0.346751 -1.122605 -0.165714
v 0.346751 -1.122605 0.160536
v 0.346751 -1.122605 0.160536
v 0.346751 -1.122605 -0.165714
v 0.371126 -1.098230 -0.165714
v 0.371126 -0.396980 -0.165714
v 0.346751 -0.372605 -0.165714
v 0.346751 -0.372605 0.160536
v 0.346751 -0.372605 0.160536
v 0.346751 -0.372605 -0.165714
v 0.020501 -0.372605 -0.165714
v 0.020501 -0.372605 0.160536
v 0.020501 -0.372605 -0.165714
v 0.020501 -0.396980 -0.190089
v 0.020501 -1.098230 -0.190089
v 0.020501 -1.122605 -0.165714
v 0.346751 -1.098230 -0.190089
v 0.346751 -1.122605 -0.165714
v 0.346751 -0.396980 -0.190089
v 0.346751 -0.372605 -0.165714
vn -0.0000 -0.0000 1.0000
vn -0.0000 1.0000 -0.0000
vn -1.0000 -0.0000 -0.0000
vn -0.0000 -0.0001 1.0000
vn -1.0000 0.0001 -0.0000
vn -0.0000 -1.0000 -0.0000
vn -0.0000 0.0001 1.0000
vn -0.0001 -1.0000 -0.0000
vn 0.0001 -0.0000 1.0000
vn 1.0000 -0.0000 -0.0000
vn 1.0000 -0.0001 -0.0000
vn 0.0001 1.0000 -0.0000
vn -0.0001 -0.0000 1.0000
vn -1.0000 -0.0000 0.0001
vn -0.0000 1.0000 -0.0001
vn -0.0000 -1.0000 0.0001
vn -1.0000 -0.0000 -0.0001
vn 1.0000 -0.0000 0.0001
vn -0.0000 -1.0000 -0.0001
vn -0.0000 1.0000 0.0001
vn 1.0000 -0.0000 -0.0001
vn -0.0000 -0.0000 -1.0000
vn -1.0000 -0.0001 -0.0000
vn -0.0000 0.0001 -1.0000
vn -0.0001 -0.0000 -1.0000
vn 0.0001 -1.0000 -0.0000
vn 1.0000 0.0001 -0.0000
vn -0.0000 -0.0001 -1.0000
vn 0.0001 -0.0000 -1.0000
vn -0.0001 1.0000 -0.0000
vt 0.555176 0.871094
vt 0.464356 0.871094
vt 0.464356 0.753906
vt 0.555176 0.753906
vt 0.558106 0.871094
vt 0.555176 0.878906
vt 0.464356 0.878906
vt 0.461426 0.871094
vt 0.461426 0.753906
vt 0.464356 0.746094
vt 0.555176 0.746094
vt 0.558106 0.753906
vt 0.558106 0.378906
vt 0.558106 0.496094
vt 0.555176 0.496094
vt 0.555176 0.378906
vt 0.464356 0.496094
vt 0.464356 0.378906
vt 0.461426 0.496094
vt 0.461426 0.378906
vt 0.496582 0.238281
vt 0.496582 0.355469
vt 0.452637 0.355469
vt 0.452637 0.238281
vt 0.461426 0.746094
vt 0.461426 0.628906
vt 0.464356 0.628906
vt 0.555176 0.628906
vt 0.558106 0.628906
vt 0.558106 0.746094
vt 0.347168 0.355469
vt 0.347168 0.238281
vt 0.391113 0.238281
vt 0.391113 0.355469
vt 0.558106 0.503906
vt 0.555176 0.503906
vt 0.464356 0.503906
vt 0.461426 0.503906
vt 0.464356 0.621094
vt 0.461426 0.621094
vt 0.555176 0.621094
vt 0.558106 0.621094
s 0
usemtl Handle1Mtl
f 1/1/1 2/2/1 3/3/1
f 1/1/1 3/3/1 4/4/1
f 1/1/1 5/5/2 6/6/3
f 1/1/4 6/6/3 7/7/3
f 1/1/1 7/7/5 2/2/1
f 2/2/1 7/7/3 8/8/6
f 2/2/7 8/8/6 9/9/8
f 2/2/9 9/9/6 3/3/1
f 3/3/1 9/9/6 10/10/10
f 3/3/7 10/10/10 11/11/10
f 3/3/1 11/11/11 4/4/1
f 4/4/1 11/11/10 12/12/2
f 4/4/1 12/12/2 5/5/12
f 4/4/13 5/5/2 1/1/1
f 13/13/2 14/14/2 15/15/14
f 13/13/15 15/15/3 16/16/3
f 16/16/3 15/15/3 17/17/3
f 16/16/3 17/17/3 18/18/3
f 18/18/3 17/17/3 19/19/16
f 18/18/17 19/19/6 20/20/6
f 21/21/6 22/22/6 23/23/6
f 21/21/6 23/23/6 24/24/6
f 25/25/6 26/26/6 27/27/18
f 25/25/19 27/27/10 10/10/10
f 10/10/10 27/27/10 28/28/10
f 10/10/10 28/28/10 11/11/10
f 11/11/10 28/28/10 29/29/20
f 11/11/21 29/29/2 30/30/2
f 31/31/2 32/32/2 33/33/2
f 31/31/2 33/33/2 34/34/2
f 35/35/2 36/36/22 15/15/3
f 15/15/23 36/36/22 37/37/22
f 15/15/3 37/37/24 17/17/3
f 17/17/3 37/37/22 38/38/6
f 38/38/6 37/37/22 39/39/25
f 38/38/26 39/39/24 40/40/6
f 40/40/6 39/39/22 27/27/10
f 27/27/27 39/39/22 41/41/22
f 27/27/10 41/41/28 28/28/10
f 28/28/10 41/41/22 42/42/2
f 42/42/2 41/41/22 36/36/29
f 42/42/30 36/36/22 35/35/2
f 41/41/22 39/39/22 37/37/22
f 41/41/22 37/37/22 36/36/22
